<svg version="1" xmlns="http://www.w3.org/2000/svg" width="1365.333" height="1365.333" viewBox="0 0 1024.000000 1024.000000"><path d="M127.3 2c-16.2 3.8-31.1 20.1-34.2 37.4-.7 3.9-1.1 27-1.1 65.3V164H81.1c-8.1 0-12.5.5-17.2 2-11.9 3.7-22.2 14-25.9 25.9-2 6.2-2 9.6-2 194.1s0 187.9 2 194.1c3.7 11.9 14 22.2 25.9 25.9 4.7 1.5 9.1 2 17.2 2H92v186.8c0 205.6-.4 192 6.1 204.3 6.3 11.8 20.2 21.8 33.5 23.9 8 1.3 752.8 1.3 760.8 0 13.3-2.1 27.2-12.1 33.5-23.9 6.5-12.3 6.1 1.3 6.1-204.3V608h8.9c6.1 0 10.9-.6 15.2-2 11.9-3.7 22.2-14 25.9-25.9 2-6.2 2-9.6 2-194.1s0-187.9-2-194.1c-3.7-11.9-14-22.2-25.9-25.9-4.3-1.4-9.1-2-15.2-2H932v-59.3c0-38.3-.4-61.4-1.1-65.3C928.3 25 918 11.5 904.5 4.9l-7-3.4L514 1.3c-210.9 0-384.9.2-386.7.7zM907 332.6c7.4 2.2 15.2 10 17.4 17.4 3.4 11.3 1.1 20.6-6.8 28.6-9.4 9.3 35.2 8.4-408.1 8.4s-398.7.9-408.1-8.4c-7.9-8-10.2-17.3-6.8-28.6 2.1-7.1 10-15.2 17-17.4 4.3-1.3 51.5-1.5 397.5-1.5 355.2-.1 393 .1 397.9 1.5zm-513.2 79.9c7.4 2.2 13.1 7 16.7 14 7.9 15.5 0 34-16.7 39-4.5 1.3-22.1 1.5-140.3 1.5-118.2 0-135.8-.2-140.3-1.5-16.6-5-24.6-23.6-16.7-39 3.5-6.9 8.4-11.1 15.7-13.6 5-1.7 12.2-1.8 140.9-1.9 118.6 0 136.2.2 140.7 1.5z"/></svg>